<?xml version="1.0" encoding="UTF-8" standalone="no"?>
<!-- Created with Inkscape (http://www.inkscape.org/) -->

<svg
   width="100mm"
   height="100mm"
   viewBox="0 0 100 100"
   version="1.1"
   id="svg5"
   inkscape:version="1.1.2 (0a00cf5339, 2022-02-04)"
   sodipodi:docname="capsule.svg"
   xmlns:inkscape="http://www.inkscape.org/namespaces/inkscape"
   xmlns:sodipodi="http://sodipodi.sourceforge.net/DTD/sodipodi-0.dtd"
   xmlns="http://www.w3.org/2000/svg"
   xmlns:svg="http://www.w3.org/2000/svg">
  <sodipodi:namedview
     id="namedview7"
     pagecolor="#ffffff"
     bordercolor="#666666"
     borderopacity="1.0"
     inkscape:pageshadow="2"
     inkscape:pageopacity="0.0"
     inkscape:pagecheckerboard="0"
     inkscape:document-units="mm"
     showgrid="false"
     inkscape:zoom="1.1224747"
     inkscape:cx="246.33071"
     inkscape:cy="215.14961"
     inkscape:window-width="1920"
     inkscape:window-height="1007"
     inkscape:window-x="0"
     inkscape:window-y="0"
     inkscape:window-maximized="1"
     inkscape:current-layer="layer1" />
  <defs
     id="defs2" />
  <g
     inkscape:label="레이어 1"
     inkscape:groupmode="layer"
     id="layer1">
    <rect
       style="fill:#f2f2f2;stroke-width:0.264585"
       id="rect6663"
       width="89.679001"
       height="20.380583"
       x="-55.188171"
       y="58.996265"
       ry="10.190291"
       transform="matrix(0.57705016,-0.81670871,0.81965644,0.57285541,0,0)" />
    <path
       style="fill:#808080;stroke-width:0.117857"
       d="m 59.558161,53.161295 c -0.358834,0.653595 -20.893645,29.557461 -21.374923,30.086364 -1.066838,1.172352 -1.675306,1.582506 -3.486134,2.349815 -1.82048,0.771454 -2.623213,0.940581 -4.242648,0.894833 -3.149189,-0.08921 -6.071479,-1.620201 -7.938298,-4.158988 -0.715586,-0.973137 -1.527697,-2.817588 -1.749989,-3.97448 -0.466335,-2.426251 -6.04e-4,-5.109502 1.231634,-7.097403 0.254198,-0.410106 5.074887,-7.2727 10.71263,-15.250208 8.157202,-11.542583 10.288427,-14.487145 10.436504,-14.419154 0.190286,0.08788 16.461186,11.308265 16.487247,11.370198 0.0091,0.01843 -0.02763,0.107952 -0.07553,0.199165 z"
       id="path7000" />
  </g>
</svg>
